# xmcd
#
# Track frame offsets:
#	150
#	21175
#	38955
#	56460
#	88850
#	108020
#	123447
#	147857
#	177931
#	204761
#	243214
#	258279
#
# Disc length: 3744 seconds
#
# Revision: 0
# Processed by: cddbd v1.5.2PL0 Copyright (c) Steve Scherf et al.
# Submitted via: EasyCDDAExtractor 16.0.6.1
#
DISCID=970e9e0c
DTITLE=Groundhogs - Razors Edge...... Plus
DYEAR=2012
DGENRE=Blues Rock
TTITLE0=Razors Edge
TTITLE1=I Confess
TTITLE2=Born To Be With You
TTITLE3=One More Chance
TTITLE4=The Protector
TTITLE5=Superseded
TTITLE6=Moving Fast Standing Still
TTITLE7=I Want You To Love Me
TTITLE8=Razor's Edge (Live)
TTITLE9=One More Chance (Live)
TTITLE10=Superseded (Live)
TTITLE11=I Want You To Love Me (Live)
EXTD=
EXTT0=
EXTT1=
EXTT2=
EXTT3=
EXTT4=
EXTT5=
EXTT6=
EXTT7=
EXTT8=
EXTT9=
EXTT10=
EXTT11=
PLAYORDER=
